<svg width="350" height="169" viewBox="0 0 350 169" fill="none" xmlns="http://www.w3.org/2000/svg">
<g filter="url(#filter0_d_82_132)">
<path d="M25 59.1608C25 42.5034 39.1463 29 56.5967 29H238.278C255.728 29 269.875 42.5034 269.875 59.1608C269.875 67.1926 275.305 92.6203 271.849 95.4479C268.394 98.2755 247.314 89.3215 238.278 89.3215H56.5967C39.1463 89.3215 25 75.8181 25 59.1608Z" fill="#FBFBFB"/>
</g>
<path d="M53.4347 66V51.4545H59.0028C60.054 51.4545 60.9276 51.6203 61.6236 51.9517C62.3243 52.2784 62.8475 52.7259 63.1932 53.294C63.5436 53.8622 63.7188 54.5062 63.7188 55.2259C63.7188 55.8177 63.6051 56.3243 63.3778 56.7457C63.1506 57.1624 62.8452 57.5009 62.4616 57.7614C62.0781 58.0218 61.6496 58.2088 61.1761 58.3224V58.4645C61.6922 58.4929 62.187 58.6515 62.6605 58.9403C63.1387 59.2244 63.5294 59.6269 63.8324 60.1477C64.1354 60.6686 64.2869 61.2983 64.2869 62.0369C64.2869 62.7898 64.1046 63.4669 63.7401 64.0682C63.3755 64.6648 62.8262 65.1359 62.0923 65.4815C61.3584 65.8272 60.4351 66 59.3224 66H53.4347ZM56.0696 63.7983H58.9034C59.8598 63.7983 60.5488 63.616 60.9702 63.2514C61.3963 62.8821 61.6094 62.4086 61.6094 61.831C61.6094 61.4001 61.5028 61.0118 61.2898 60.6662C61.0767 60.3158 60.7737 60.0412 60.3807 59.8423C59.9877 59.6387 59.5189 59.5369 58.9744 59.5369H56.0696V63.7983ZM56.0696 57.6406H58.6761C59.1307 57.6406 59.5402 57.5578 59.9048 57.392C60.2694 57.2216 60.5559 56.9825 60.7642 56.6747C60.9773 56.3622 61.0838 55.9929 61.0838 55.5668C61.0838 55.0033 60.8849 54.5393 60.4872 54.1747C60.0942 53.8101 59.5095 53.6278 58.733 53.6278H56.0696V57.6406ZM71.2951 66.2131C70.2013 66.2131 69.2567 65.9858 68.4613 65.5312C67.6706 65.072 67.0621 64.4233 66.636 63.5852C66.2099 62.7424 65.9968 61.7505 65.9968 60.6094C65.9968 59.4872 66.2099 58.5024 66.636 57.6548C67.0669 56.8026 67.6682 56.1397 68.44 55.6662C69.2118 55.188 70.1185 54.9489 71.1602 54.9489C71.8325 54.9489 72.467 55.0578 73.0636 55.2756C73.6649 55.4886 74.1952 55.8201 74.6545 56.2699C75.1185 56.7197 75.4831 57.2926 75.7482 57.9886C76.0134 58.6799 76.146 59.5038 76.146 60.4602V61.2486H67.2042V59.5156H73.6815C73.6767 59.0232 73.5702 58.5852 73.3619 58.2017C73.1535 57.8134 72.8623 57.508 72.4883 57.2855C72.119 57.063 71.6881 56.9517 71.1957 56.9517C70.6701 56.9517 70.2085 57.0795 69.8107 57.3352C69.413 57.5862 69.1029 57.9176 68.8803 58.3295C68.6625 58.7367 68.5513 59.1842 68.5465 59.6719V61.1847C68.5465 61.8191 68.6625 62.3636 68.8945 62.8182C69.1265 63.268 69.4509 63.6136 69.8675 63.8551C70.2842 64.0919 70.7719 64.2102 71.3306 64.2102C71.7047 64.2102 72.0432 64.1581 72.3462 64.054C72.6493 63.9451 72.9121 63.7865 73.1346 63.5781C73.3571 63.3698 73.5252 63.1117 73.6388 62.804L76.0394 63.0739C75.8879 63.7083 75.5991 64.2623 75.1729 64.7358C74.7515 65.2045 74.2118 65.5691 73.5536 65.8295C72.8955 66.0852 72.1426 66.2131 71.2951 66.2131ZM86.9432 57.9744L84.5994 58.2301C84.5331 57.9934 84.4171 57.7708 84.2514 57.5625C84.0904 57.3542 83.8726 57.1861 83.598 57.0582C83.3234 56.9304 82.9872 56.8665 82.5895 56.8665C82.0545 56.8665 81.6046 56.9825 81.2401 57.2145C80.8802 57.4465 80.7027 57.7472 80.7074 58.1165C80.7027 58.4337 80.8187 58.6918 81.0554 58.8906C81.2969 59.0895 81.6946 59.2528 82.2486 59.3807L84.1094 59.7784C85.1416 60.0009 85.9086 60.3537 86.4105 60.8366C86.9171 61.3196 87.1728 61.9517 87.1776 62.733C87.1728 63.4195 86.9716 64.0256 86.5739 64.5511C86.1809 65.072 85.634 65.4792 84.9332 65.7727C84.2325 66.0663 83.4276 66.2131 82.5185 66.2131C81.1832 66.2131 80.1084 65.9337 79.294 65.375C78.4796 64.8116 77.9943 64.0279 77.8381 63.0241L80.3452 62.7827C80.4588 63.2751 80.7003 63.6468 81.0696 63.8977C81.4389 64.1487 81.9195 64.2741 82.5114 64.2741C83.1222 64.2741 83.6122 64.1487 83.9815 63.8977C84.3556 63.6468 84.5426 63.3366 84.5426 62.9673C84.5426 62.6548 84.4219 62.3968 84.1804 62.1932C83.9437 61.9896 83.5743 61.8333 83.0724 61.7244L81.2116 61.3338C80.1652 61.116 79.3911 60.7491 78.8892 60.233C78.3873 59.7121 78.1387 59.054 78.1435 58.2585C78.1387 57.5862 78.321 57.0038 78.6903 56.5114C79.0644 56.0142 79.5829 55.6307 80.2457 55.3608C80.9134 55.0862 81.6828 54.9489 82.554 54.9489C83.8324 54.9489 84.8385 55.2211 85.5724 55.7656C86.3111 56.3101 86.768 57.0464 86.9432 57.9744ZM94.745 55.0909V57.0795H88.4737V55.0909H94.745ZM90.022 52.4773H92.593V62.7188C92.593 63.0644 92.6451 63.3295 92.7493 63.5142C92.8582 63.6941 93.0002 63.8172 93.1754 63.8835C93.3506 63.9498 93.5447 63.983 93.7578 63.983C93.9188 63.983 94.0656 63.9711 94.1982 63.9474C94.3355 63.9238 94.4396 63.9025 94.5107 63.8835L94.9439 65.8935C94.8066 65.9408 94.6101 65.9929 94.3544 66.0497C94.1035 66.1065 93.7957 66.1397 93.4311 66.1491C92.7872 66.1681 92.2071 66.071 91.6911 65.858C91.175 65.6402 90.7654 65.304 90.4624 64.8494C90.1641 64.3949 90.0173 63.8267 90.022 63.1449V52.4773ZM109.875 55.4531C109.808 54.8329 109.529 54.3499 109.037 54.0043C108.549 53.6586 107.914 53.4858 107.133 53.4858C106.584 53.4858 106.113 53.5687 105.72 53.7344C105.327 53.9001 105.026 54.125 104.818 54.4091C104.609 54.6932 104.503 55.0175 104.498 55.3821C104.498 55.6851 104.567 55.9479 104.704 56.1705C104.846 56.393 105.038 56.5824 105.279 56.7386C105.521 56.8902 105.788 57.018 106.082 57.1222C106.376 57.2263 106.672 57.3139 106.97 57.3849L108.333 57.7259C108.883 57.8537 109.411 58.0265 109.917 58.2443C110.429 58.4621 110.886 58.7367 111.288 59.0682C111.695 59.3996 112.017 59.7997 112.254 60.2685C112.491 60.7372 112.609 61.2865 112.609 61.9162C112.609 62.7685 112.391 63.5189 111.956 64.1676C111.52 64.8116 110.89 65.3158 110.066 65.6804C109.247 66.0402 108.255 66.2202 107.091 66.2202C105.959 66.2202 104.976 66.045 104.143 65.6946C103.315 65.3442 102.666 64.8329 102.197 64.1605C101.733 63.4882 101.482 62.669 101.444 61.7031H104.037C104.074 62.2098 104.231 62.6312 104.505 62.9673C104.78 63.3035 105.137 63.5545 105.578 63.7202C106.023 63.8859 106.52 63.9688 107.069 63.9688C107.642 63.9688 108.144 63.8835 108.575 63.7131C109.011 63.5379 109.351 63.2964 109.598 62.9886C109.844 62.6761 109.969 62.3116 109.974 61.8949C109.969 61.5161 109.858 61.2036 109.64 60.9574C109.422 60.7064 109.117 60.4981 108.724 60.3324C108.336 60.1619 107.881 60.0104 107.36 59.8778L105.706 59.4517C104.508 59.1439 103.561 58.6776 102.865 58.0526C102.173 57.4228 101.828 56.5871 101.828 55.5455C101.828 54.6884 102.06 53.938 102.524 53.294C102.993 52.6501 103.629 52.1506 104.434 51.7955C105.239 51.4356 106.151 51.2557 107.169 51.2557C108.201 51.2557 109.105 51.4356 109.882 51.7955C110.663 52.1506 111.276 52.6454 111.721 53.2798C112.166 53.9096 112.396 54.634 112.41 55.4531H109.875ZM121.798 61.4119V55.0909H124.369V66H121.876V64.0611H121.762C121.516 64.6719 121.111 65.1714 120.548 65.5597C119.989 65.9479 119.3 66.142 118.481 66.142C117.766 66.142 117.134 65.9834 116.585 65.6662C116.04 65.3442 115.614 64.8778 115.306 64.267C114.998 63.6515 114.844 62.9081 114.844 62.0369V55.0909H117.415V61.6392C117.415 62.3305 117.605 62.8797 117.984 63.2869C118.362 63.6941 118.86 63.8977 119.475 63.8977C119.854 63.8977 120.221 63.8054 120.576 63.6207C120.931 63.4361 121.222 63.1615 121.45 62.7969C121.682 62.4276 121.798 61.9659 121.798 61.4119ZM135.635 57.9744L133.291 58.2301C133.225 57.9934 133.109 57.7708 132.943 57.5625C132.782 57.3542 132.564 57.1861 132.289 57.0582C132.015 56.9304 131.679 56.8665 131.281 56.8665C130.746 56.8665 130.296 56.9825 129.931 57.2145C129.572 57.4465 129.394 57.7472 129.399 58.1165C129.394 58.4337 129.51 58.6918 129.747 58.8906C129.988 59.0895 130.386 59.2528 130.94 59.3807L132.801 59.7784C133.833 60.0009 134.6 60.3537 135.102 60.8366C135.609 61.3196 135.864 61.9517 135.869 62.733C135.864 63.4195 135.663 64.0256 135.265 64.5511C134.872 65.072 134.325 65.4792 133.625 65.7727C132.924 66.0663 132.119 66.2131 131.21 66.2131C129.875 66.2131 128.8 65.9337 127.985 65.375C127.171 64.8116 126.686 64.0279 126.529 63.0241L129.037 62.7827C129.15 63.2751 129.392 63.6468 129.761 63.8977C130.13 64.1487 130.611 64.2741 131.203 64.2741C131.814 64.2741 132.304 64.1487 132.673 63.8977C133.047 63.6468 133.234 63.3366 133.234 62.9673C133.234 62.6548 133.113 62.3968 132.872 62.1932C132.635 61.9896 132.266 61.8333 131.764 61.7244L129.903 61.3338C128.857 61.116 128.083 60.7491 127.581 60.233C127.079 59.7121 126.83 59.054 126.835 58.2585C126.83 57.5862 127.012 57.0038 127.382 56.5114C127.756 56.0142 128.274 55.6307 128.937 55.3608C129.605 55.0862 130.374 54.9489 131.245 54.9489C132.524 54.9489 133.53 55.2211 134.264 55.7656C135.002 56.3101 135.459 57.0464 135.635 57.9744ZM140.56 59.608V66H137.989V51.4545H140.503V56.9446H140.631C140.887 56.3291 141.282 55.8437 141.817 55.4886C142.357 55.1288 143.043 54.9489 143.877 54.9489C144.634 54.9489 145.295 55.1075 145.858 55.4247C146.422 55.742 146.857 56.206 147.165 56.8168C147.478 57.4276 147.634 58.1733 147.634 59.054V66H145.063V59.4517C145.063 58.7178 144.873 58.1473 144.495 57.7401C144.121 57.3281 143.595 57.1222 142.918 57.1222C142.463 57.1222 142.056 57.2216 141.696 57.4205C141.341 57.6146 141.062 57.8963 140.858 58.2656C140.659 58.6349 140.56 59.0824 140.56 59.608ZM150.255 66V55.0909H152.826V66H150.255ZM151.547 53.5426C151.14 53.5426 150.79 53.4077 150.496 53.1378C150.203 52.8632 150.056 52.5341 150.056 52.1506C150.056 51.7623 150.203 51.4332 150.496 51.1634C150.79 50.8887 151.14 50.7514 151.547 50.7514C151.959 50.7514 152.31 50.8887 152.598 51.1634C152.892 51.4332 153.039 51.7623 153.039 52.1506C153.039 52.5341 152.892 52.8632 152.598 53.1378C152.31 53.4077 151.959 53.5426 151.547 53.5426ZM160.544 66V51.4545H170.004V53.6634H163.179V57.6122H169.514V59.821H163.179V63.7912H170.061V66H160.544ZM182.323 55.0909L178.438 66H175.597L171.712 55.0909H174.454L176.961 63.1946H177.075L179.589 55.0909H182.323ZM188.561 66.2131C187.467 66.2131 186.522 65.9858 185.727 65.5312C184.936 65.072 184.328 64.4233 183.902 63.5852C183.475 62.7424 183.262 61.7505 183.262 60.6094C183.262 59.4872 183.475 58.5024 183.902 57.6548C184.333 56.8026 184.934 56.1397 185.706 55.6662C186.477 55.188 187.384 54.9489 188.426 54.9489C189.098 54.9489 189.733 55.0578 190.329 55.2756C190.931 55.4886 191.461 55.8201 191.92 56.2699C192.384 56.7197 192.749 57.2926 193.014 57.9886C193.279 58.6799 193.412 59.5038 193.412 60.4602V61.2486H184.47V59.5156H190.947C190.942 59.0232 190.836 58.5852 190.627 58.2017C190.419 57.8134 190.128 57.508 189.754 57.2855C189.385 57.063 188.954 56.9517 188.461 56.9517C187.936 56.9517 187.474 57.0795 187.076 57.3352C186.679 57.5862 186.368 57.9176 186.146 58.3295C185.928 58.7367 185.817 59.1842 185.812 59.6719V61.1847C185.812 61.8191 185.928 62.3636 186.16 62.8182C186.392 63.268 186.717 63.6136 187.133 63.8551C187.55 64.0919 188.038 64.2102 188.596 64.2102C188.97 64.2102 189.309 64.1581 189.612 64.054C189.915 63.9451 190.178 63.7865 190.4 63.5781C190.623 63.3698 190.791 63.1117 190.904 62.804L193.305 63.0739C193.154 63.7083 192.865 64.2623 192.439 64.7358C192.017 65.2045 191.477 65.5691 190.819 65.8295C190.161 66.0852 189.408 66.2131 188.561 66.2131ZM195.587 66V55.0909H198.08V56.9091H198.193C198.392 56.2794 198.733 55.794 199.216 55.4531C199.704 55.1075 200.26 54.9347 200.885 54.9347C201.027 54.9347 201.186 54.9418 201.361 54.956C201.541 54.9654 201.69 54.982 201.808 55.0057V57.3707C201.699 57.3329 201.527 57.2997 201.29 57.2713C201.058 57.2382 200.833 57.2216 200.615 57.2216C200.146 57.2216 199.725 57.3234 199.351 57.527C198.982 57.7259 198.69 58.0028 198.477 58.358C198.264 58.7131 198.158 59.1226 198.158 59.5866V66H195.587ZM206.663 51.4545L206.428 61.7244H204.141L203.914 51.4545H206.663ZM205.285 66.1562C204.854 66.1562 204.485 66.0047 204.177 65.7017C203.874 65.3987 203.722 65.0294 203.722 64.5938C203.722 64.1676 203.874 63.803 204.177 63.5C204.485 63.197 204.854 63.0455 205.285 63.0455C205.706 63.0455 206.071 63.197 206.379 63.5C206.691 63.803 206.847 64.1676 206.847 64.5938C206.847 64.8826 206.774 65.1454 206.627 65.3821C206.485 65.6188 206.296 65.8082 206.059 65.9503C205.827 66.0876 205.569 66.1562 205.285 66.1562Z" fill="#FF6868"/>
<defs>
<filter id="filter0_d_82_132" x="0" y="0" width="350" height="169" filterUnits="userSpaceOnUse" color-interpolation-filters="sRGB">
<feFlood flood-opacity="0" result="BackgroundImageFix"/>
<feColorMatrix in="SourceAlpha" type="matrix" values="0 0 0 0 0 0 0 0 0 0 0 0 0 0 0 0 0 0 127 0" result="hardAlpha"/>
<feOffset dx="26" dy="22"/>
<feGaussianBlur stdDeviation="25.5"/>
<feComposite in2="hardAlpha" operator="out"/>
<feColorMatrix type="matrix" values="0 0 0 0 0 0 0 0 0 0 0 0 0 0 0 0 0 0 0.14 0"/>
<feBlend mode="normal" in2="BackgroundImageFix" result="effect1_dropShadow_82_132"/>
<feBlend mode="normal" in="SourceGraphic" in2="effect1_dropShadow_82_132" result="shape"/>
</filter>
</defs>
</svg>
