<svg width="87" height="75" viewBox="0 0 87 75" fill="none" xmlns="http://www.w3.org/2000/svg">
<path d="M0 0H49.5C70.2107 0 87 16.7893 87 37.5V75H37.5C16.7893 75 0 58.2107 0 37.5V0Z" fill="#39DB4A"/>
<g clip-path="url(#clip0_82_195)">
<path d="M48.25 26.8507C47.2243 26.8606 46.2152 27.1106 45.3035 27.5807C44.3918 28.0508 43.6029 28.7279 43 29.5577C42.397 28.7279 41.6081 28.0508 40.6964 27.5807C39.7848 27.1106 38.7756 26.8606 37.75 26.8507C35.8917 26.9249 34.1385 27.7319 32.8736 29.0952C31.6087 30.4585 30.935 32.2671 31 34.1257C31 38.6777 35.674 43.5507 39.6 46.8377C40.5533 47.6393 41.7589 48.0788 43.0045 48.0788C44.25 48.0788 45.4556 47.6393 46.409 46.8377C50.331 43.5507 55.009 38.6777 55.009 34.1257C55.0738 32.2656 54.399 30.4556 53.1322 29.0921C51.8653 27.7286 50.1098 26.9226 48.25 26.8507ZM44.477 44.5387C44.0634 44.8869 43.5401 45.0779 42.9995 45.0779C42.4588 45.0779 41.9355 44.8869 41.522 44.5387C36.742 40.5307 34 36.7357 34 34.1257C33.9362 33.0629 34.2942 32.0179 34.9963 31.2175C35.6984 30.4171 36.6879 29.926 37.75 29.8507C38.812 29.926 39.8015 30.4171 40.5036 31.2175C41.2057 32.0179 41.5637 33.0629 41.5 34.1257C41.5 34.5235 41.658 34.9051 41.9393 35.1864C42.2206 35.4677 42.6021 35.6257 43 35.6257C43.3978 35.6257 43.7793 35.4677 44.0606 35.1864C44.3419 34.9051 44.5 34.5235 44.5 34.1257C44.4362 33.0629 44.7942 32.0179 45.4963 31.2175C46.1984 30.4171 47.1879 29.926 48.25 29.8507C49.312 29.926 50.3015 30.4171 51.0036 31.2175C51.7057 32.0179 52.0637 33.0629 52 34.1257C52 36.7357 49.258 40.5307 44.477 44.5387Z" fill="white"/>
</g>
<defs>
<clipPath id="clip0_82_195">
<rect width="24" height="24" fill="white" transform="translate(31 25)"/>
</clipPath>
</defs>
</svg>
