<svg width="350" height="169" viewBox="0 0 350 169" fill="none" xmlns="http://www.w3.org/2000/svg">
<g filter="url(#filter0_d_82_227)">
<path d="M273 65.8392C273 82.4966 258.854 96 241.403 96L59.7221 96C42.2717 96 28.1254 82.4966 28.1254 65.8392C28.1254 57.8074 22.6947 32.3797 26.1506 29.5521C29.6065 26.7245 50.686 35.6785 59.7221 35.6785L241.403 35.6785C258.854 35.6785 273 49.1819 273 65.8392Z" fill="#FBFBFB"/>
</g>
<path d="M82.9574 65.9259C82.9574 67.4931 82.6638 68.8354 82.0767 69.9529C81.4943 71.0656 80.6989 71.9178 79.6903 72.5097C78.6866 73.1015 77.5478 73.3975 76.2742 73.3975C75.0005 73.3975 73.8594 73.1015 72.8509 72.5097C71.8471 71.9131 71.0516 71.0585 70.4645 69.9458C69.8821 68.8283 69.5909 67.4884 69.5909 65.9259C69.5909 64.3586 69.8821 63.0187 70.4645 61.906C71.0516 60.7886 71.8471 59.9339 72.8509 59.3421C73.8594 58.7502 75.0005 58.4543 76.2742 58.4543C77.5478 58.4543 78.6866 58.7502 79.6903 59.3421C80.6989 59.9339 81.4943 60.7886 82.0767 61.906C82.6638 63.0187 82.9574 64.3586 82.9574 65.9259ZM80.3082 65.9259C80.3082 64.8227 80.1354 63.8923 79.7898 63.1347C79.4489 62.3724 78.9754 61.7971 78.3693 61.4088C77.7633 61.0158 77.0649 60.8193 76.2742 60.8193C75.4834 60.8193 74.785 61.0158 74.179 61.4088C73.5729 61.7971 73.0971 62.3724 72.7514 63.1347C72.4105 63.8923 72.2401 64.8227 72.2401 65.9259C72.2401 67.0291 72.4105 67.9619 72.7514 68.7242C73.0971 69.4818 73.5729 70.057 74.179 70.45C74.785 70.8383 75.4834 71.0324 76.2742 71.0324C77.0649 71.0324 77.7633 70.8383 78.3693 70.45C78.9754 70.057 79.4489 69.4818 79.7898 68.7242C80.1354 67.9619 80.3082 67.0291 80.3082 65.9259ZM92.288 68.6105V62.2895H94.859V73.1986H92.3661V71.2597H92.2525C92.0063 71.8705 91.6014 72.37 91.038 72.7583C90.4793 73.1465 89.7904 73.3407 88.9712 73.3407C88.2563 73.3407 87.6242 73.182 87.0749 72.8648C86.5304 72.5428 86.1043 72.0764 85.7965 71.4657C85.4888 70.8501 85.3349 70.1068 85.3349 69.2355V62.2895H87.9059V68.8378C87.9059 69.5291 88.0953 70.0783 88.4741 70.4855C88.8529 70.8927 89.35 71.0963 89.9656 71.0963C90.3443 71.0963 90.7113 71.004 91.0664 70.8193C91.4215 70.6347 91.7127 70.3601 91.94 69.9955C92.172 69.6262 92.288 69.1645 92.288 68.6105ZM97.5028 73.1986V62.2895H99.9957V64.1077H100.109C100.308 63.478 100.649 62.9926 101.132 62.6517C101.62 62.3061 102.176 62.1333 102.801 62.1333C102.943 62.1333 103.102 62.1404 103.277 62.1546C103.457 62.164 103.606 62.1806 103.724 62.2043V64.5693C103.616 64.5315 103.443 64.4983 103.206 64.4699C102.974 64.4368 102.749 64.4202 102.531 64.4202C102.063 64.4202 101.641 64.522 101.267 64.7256C100.898 64.9245 100.607 65.2014 100.393 65.5566C100.18 65.9117 100.074 66.3212 100.074 66.7853V73.1986H97.5028ZM110.507 73.1986V58.6532H116.075C117.126 58.6532 118 58.8189 118.696 59.1503C119.397 59.477 119.92 59.9245 120.266 60.4926C120.616 61.0608 120.791 61.7048 120.791 62.4245C120.791 63.0163 120.678 63.5229 120.45 63.9443C120.223 64.361 119.918 64.6996 119.534 64.96C119.151 65.2204 118.722 65.4074 118.249 65.5211V65.6631C118.765 65.6915 119.259 65.8501 119.733 66.1389C120.211 66.423 120.602 66.8255 120.905 67.3463C121.208 67.8672 121.359 68.4969 121.359 69.2355C121.359 69.9884 121.177 70.6655 120.813 71.2668C120.448 71.8634 119.899 72.3345 119.165 72.6801C118.431 73.0258 117.508 73.1986 116.395 73.1986H110.507ZM113.142 70.9969H115.976C116.932 70.9969 117.621 70.8146 118.043 70.45C118.469 70.0807 118.682 69.6072 118.682 69.0296C118.682 68.5987 118.575 68.2104 118.362 67.8648C118.149 67.5144 117.846 67.2398 117.453 67.0409C117.06 66.8373 116.591 66.7355 116.047 66.7355H113.142V70.9969ZM113.142 64.8392H115.749C116.203 64.8392 116.613 64.7564 116.977 64.5907C117.342 64.4202 117.628 64.1811 117.837 63.8733C118.05 63.5608 118.156 63.1915 118.156 62.7654C118.156 62.2019 117.957 61.7379 117.56 61.3733C117.167 61.0087 116.582 60.8264 115.805 60.8264H113.142V64.8392ZM128.368 73.4117C127.274 73.4117 126.329 73.1844 125.534 72.7299C124.743 72.2706 124.135 71.6219 123.708 70.7838C123.282 69.941 123.069 68.9491 123.069 67.808C123.069 66.6858 123.282 65.701 123.708 64.8534C124.139 64.0012 124.741 63.3383 125.512 62.8648C126.284 62.3866 127.191 62.1475 128.233 62.1475C128.905 62.1475 129.539 62.2564 130.136 62.4742C130.737 62.6872 131.268 63.0187 131.727 63.4685C132.191 63.9183 132.556 64.4912 132.821 65.1872C133.086 65.8785 133.218 66.7024 133.218 67.6588V68.4472H124.277V66.7142H130.754C130.749 66.2218 130.643 65.7838 130.434 65.4003C130.226 65.0121 129.935 64.7067 129.561 64.4841C129.191 64.2616 128.761 64.1503 128.268 64.1503C127.743 64.1503 127.281 64.2782 126.883 64.5338C126.485 64.7848 126.175 65.1162 125.953 65.5282C125.735 65.9354 125.624 66.3828 125.619 66.8705V68.3833C125.619 69.0177 125.735 69.5622 125.967 70.0168C126.199 70.4666 126.523 70.8122 126.94 71.0537C127.357 71.2905 127.844 71.4088 128.403 71.4088C128.777 71.4088 129.116 71.3568 129.419 71.2526C129.722 71.1437 129.984 70.9851 130.207 70.7767C130.43 70.5684 130.598 70.3104 130.711 70.0026L133.112 70.2725C132.96 70.9069 132.672 71.4609 132.245 71.9344C131.824 72.4032 131.284 72.7677 130.626 73.0282C129.968 73.2838 129.215 73.4117 128.368 73.4117ZM144.016 65.173L141.672 65.4287C141.606 65.192 141.49 64.9694 141.324 64.7611C141.163 64.5528 140.945 64.3847 140.67 64.2568C140.396 64.129 140.06 64.0651 139.662 64.0651C139.127 64.0651 138.677 64.1811 138.313 64.4131C137.953 64.6451 137.775 64.9458 137.78 65.3151C137.775 65.6323 137.891 65.8904 138.128 66.0892C138.369 66.2881 138.767 66.4514 139.321 66.5793L141.182 66.977C142.214 67.1996 142.981 67.5523 143.483 68.0353C143.99 68.5182 144.245 69.1503 144.25 69.9316C144.245 70.6181 144.044 71.2242 143.646 71.7497C143.253 72.2706 142.706 72.6778 142.006 72.9713C141.305 73.2649 140.5 73.4117 139.591 73.4117C138.256 73.4117 137.181 73.1323 136.366 72.5736C135.552 72.0102 135.067 71.2265 134.911 70.2228L137.418 69.9813C137.531 70.4737 137.773 70.8454 138.142 71.0963C138.511 71.3473 138.992 71.4728 139.584 71.4728C140.195 71.4728 140.685 71.3473 141.054 71.0963C141.428 70.8454 141.615 70.5353 141.615 70.1659C141.615 69.8534 141.494 69.5954 141.253 69.3918C141.016 69.1882 140.647 69.0319 140.145 68.923L138.284 68.5324C137.238 68.3146 136.464 67.9477 135.962 67.4316C135.46 66.9107 135.211 66.2526 135.216 65.4571C135.211 64.7848 135.393 64.2024 135.763 63.71C136.137 63.2128 136.655 62.8293 137.318 62.5594C137.986 62.2848 138.755 62.1475 139.626 62.1475C140.905 62.1475 141.911 62.4197 142.645 62.9642C143.384 63.5087 143.84 64.245 144.016 65.173ZM151.817 62.2895V64.2782H145.546V62.2895H151.817ZM147.094 59.6759H149.665V69.9174C149.665 70.263 149.718 70.5282 149.822 70.7128C149.931 70.8927 150.073 71.0158 150.248 71.0821C150.423 71.1484 150.617 71.1816 150.83 71.1816C150.991 71.1816 151.138 71.1697 151.271 71.1461C151.408 71.1224 151.512 71.1011 151.583 71.0821L152.016 73.0921C151.879 73.1394 151.683 73.1915 151.427 73.2483C151.176 73.3051 150.868 73.3383 150.504 73.3478C149.86 73.3667 149.28 73.2696 148.763 73.0566C148.247 72.8388 147.838 72.5026 147.535 72.048C147.237 71.5935 147.09 71.0253 147.094 70.3435V59.6759ZM171.493 63.5608H168.836C168.761 63.1252 168.621 62.7393 168.417 62.4032C168.214 62.0622 167.96 61.7734 167.657 61.5367C167.354 61.2999 167.009 61.1224 166.62 61.004C166.237 60.8809 165.823 60.8193 165.377 60.8193C164.587 60.8193 163.886 61.0182 163.275 61.4159C162.664 61.8089 162.186 62.3866 161.841 63.1489C161.495 63.9065 161.322 64.8321 161.322 65.9259C161.322 67.0386 161.495 67.9761 161.841 68.7384C162.191 69.496 162.669 70.0689 163.275 70.4571C163.886 70.8407 164.584 71.0324 165.37 71.0324C165.806 71.0324 166.213 70.9756 166.592 70.862C166.976 70.7436 167.319 70.5708 167.622 70.3435C167.93 70.1162 168.188 69.8369 168.396 69.5054C168.609 69.174 168.756 68.7952 168.836 68.3691L171.493 68.3833C171.393 69.0746 171.178 69.7232 170.846 70.3293C170.52 70.9354 170.091 71.4704 169.561 71.9344C169.03 72.3937 168.41 72.7535 167.7 73.0139C166.99 73.2696 166.201 73.3975 165.335 73.3975C164.056 73.3975 162.915 73.1015 161.912 72.5097C160.908 71.9178 160.117 71.0632 159.539 69.9458C158.962 68.8283 158.673 67.4884 158.673 65.9259C158.673 64.3586 158.964 63.0187 159.547 61.906C160.129 60.7886 160.922 59.9339 161.926 59.3421C162.93 58.7502 164.066 58.4543 165.335 58.4543C166.145 58.4543 166.897 58.5679 167.593 58.7952C168.289 59.0225 168.91 59.3563 169.454 59.7966C169.999 60.2322 170.446 60.7673 170.797 61.4017C171.152 62.0315 171.384 62.7512 171.493 63.5608ZM176.363 66.8066V73.1986H173.792V58.6532H176.306V64.1432H176.434C176.69 63.5277 177.085 63.0424 177.62 62.6872C178.16 62.3274 178.846 62.1475 179.68 62.1475C180.437 62.1475 181.098 62.3061 181.661 62.6233C182.225 62.9406 182.66 63.4046 182.968 64.0154C183.281 64.6262 183.437 65.3719 183.437 66.2526V73.1986H180.866V66.6503C180.866 65.9164 180.676 65.3459 180.298 64.9387C179.924 64.5267 179.398 64.3208 178.721 64.3208C178.266 64.3208 177.859 64.4202 177.499 64.6191C177.144 64.8132 176.865 65.0949 176.661 65.4642C176.462 65.8336 176.363 66.281 176.363 66.8066ZM190.887 73.4117C189.793 73.4117 188.849 73.1844 188.053 72.7299C187.263 72.2706 186.654 71.6219 186.228 70.7838C185.802 69.941 185.589 68.9491 185.589 67.808C185.589 66.6858 185.802 65.701 186.228 64.8534C186.659 64.0012 187.26 63.3383 188.032 62.8648C188.804 62.3866 189.71 62.1475 190.752 62.1475C191.424 62.1475 192.059 62.2564 192.656 62.4742C193.257 62.6872 193.787 63.0187 194.246 63.4685C194.71 63.9183 195.075 64.4912 195.34 65.1872C195.605 65.8785 195.738 66.7024 195.738 67.6588V68.4472H186.796V66.7142H193.273C193.269 66.2218 193.162 65.7838 192.954 65.4003C192.746 65.0121 192.454 64.7067 192.08 64.4841C191.711 64.2616 191.28 64.1503 190.788 64.1503C190.262 64.1503 189.8 64.2782 189.403 64.5338C189.005 64.7848 188.695 65.1162 188.472 65.5282C188.255 65.9354 188.143 66.3828 188.138 66.8705V68.3833C188.138 69.0177 188.255 69.5622 188.487 70.0168C188.719 70.4666 189.043 70.8122 189.46 71.0537C189.876 71.2905 190.364 71.4088 190.923 71.4088C191.297 71.4088 191.635 71.3568 191.938 71.2526C192.241 71.1437 192.504 70.9851 192.727 70.7767C192.949 70.5684 193.117 70.3104 193.231 70.0026L195.631 70.2725C195.48 70.9069 195.191 71.4609 194.765 71.9344C194.344 72.4032 193.804 72.7677 193.146 73.0282C192.487 73.2838 191.735 73.4117 190.887 73.4117ZM203.439 62.2895V64.2782H196.99V62.2895H203.439ZM198.602 73.1986V61.2597C198.602 60.5258 198.753 59.915 199.056 59.4273C199.364 58.9396 199.776 58.575 200.292 58.3336C200.808 58.0921 201.381 57.9713 202.011 57.9713C202.456 57.9713 202.851 58.0068 203.197 58.0779C203.543 58.1489 203.798 58.2128 203.964 58.2696L203.453 60.2583C203.344 60.2251 203.207 60.192 203.041 60.1588C202.875 60.121 202.69 60.102 202.487 60.102C202.009 60.102 201.67 60.218 201.471 60.45C201.277 60.6773 201.18 61.004 201.18 61.4301V73.1986H198.602ZM209.092 74.5986H229.092V54.5986H209.092V74.5986Z" fill="black"/>
<defs>
<filter id="filter0_d_82_227" x="1.14441e-05" y="0" width="350" height="169" filterUnits="userSpaceOnUse" color-interpolation-filters="sRGB">
<feFlood flood-opacity="0" result="BackgroundImageFix"/>
<feColorMatrix in="SourceAlpha" type="matrix" values="0 0 0 0 0 0 0 0 0 0 0 0 0 0 0 0 0 0 127 0" result="hardAlpha"/>
<feOffset dx="26" dy="22"/>
<feGaussianBlur stdDeviation="25.5"/>
<feComposite in2="hardAlpha" operator="out"/>
<feColorMatrix type="matrix" values="0 0 0 0 0 0 0 0 0 0 0 0 0 0 0 0 0 0 0.14 0"/>
<feBlend mode="normal" in2="BackgroundImageFix" result="effect1_dropShadow_82_227"/>
<feBlend mode="normal" in="SourceGraphic" in2="effect1_dropShadow_82_227" result="shape"/>
</filter>
</defs>
</svg>
