<svg width="23" height="26" viewBox="0 0 23 26" fill="none" xmlns="http://www.w3.org/2000/svg">
<path d="M22.5993 23.3725L19.3855 19.7548C20.8715 17.6146 21.6779 14.9717 21.6749 12.251C21.6749 9.828 21.0393 7.45939 19.8484 5.44472C18.6576 3.43005 16.965 1.85981 14.9847 0.932558C13.0045 0.00530822 10.8254 -0.237303 8.72316 0.235405C6.6209 0.708113 4.68986 1.87491 3.17422 3.58824C1.65857 5.30158 0.626408 7.4845 0.208243 9.86096C-0.209922 12.2374 0.00469574 14.7007 0.824955 16.9393C1.64521 19.1779 3.03428 21.0912 4.81648 22.4374C6.59869 23.7835 8.694 24.502 10.8374 24.502C13.2442 24.5054 15.5821 23.5939 17.4754 21.914L20.6756 25.547C20.8016 25.6906 20.9514 25.8045 21.1165 25.8822C21.2816 25.96 21.4586 26 21.6375 26C21.8163 26 21.9934 25.96 22.1584 25.8822C22.3235 25.8045 22.4734 25.6906 22.5993 25.547C22.7263 25.4047 22.827 25.2353 22.8958 25.0487C22.9646 24.8621 23 24.6619 23 24.4597C23 24.2576 22.9646 24.0574 22.8958 23.8708C22.827 23.6842 22.7263 23.5148 22.5993 23.3725ZM2.70936 12.251C2.70936 10.4338 3.18607 8.6573 4.07919 7.14629C4.97231 5.63529 6.24175 4.45761 7.72696 3.76217C9.21217 3.06673 10.8465 2.88478 12.4231 3.23931C13.9998 3.59384 15.4481 4.46894 16.5849 5.75394C17.7216 7.03894 18.4957 8.67613 18.8093 10.4585C19.123 12.2408 18.962 14.0883 18.3468 15.7672C17.7316 17.4461 16.6898 18.8812 15.3532 19.8908C14.0165 20.9004 12.445 21.4393 10.8374 21.4393C8.68174 21.4393 6.61433 20.4712 5.09002 18.7481C3.56571 17.025 2.70936 14.6879 2.70936 12.251Z" fill="#272727"/>
</svg>
